<svg xmlns="http://www.w3.org/2000/svg" width="653.1256103515625" height="654.9055786132812" viewBox="-600.3416137695312 -359.0583190917969 653.1256103515625 654.9055786132812"><title>Neo4j Graph Visualization</title><desc>Created using Neo4j (http://www.neo4j.com/)</desc><g class="layer relationships"><g class="relationship" transform="translate(-371.6694804980513 -233.24633468911904) rotate(380.9156234667866)"><path class="b-outline" fill="#A5ABB6" stroke="none" d="M 25 0.5 L 89.44952986011123 0.5 L 89.44952986011123 -0.5 L 25 -0.5 Z M 161.23468611011123 0.5 L 225.68421597022245 0.5 L 225.68421597022245 3.5 L 232.68421597022245 0 L 225.68421597022245 -3.5 L 225.68421597022245 -0.5 L 161.23468611011123 -0.5 Z"/><text text-anchor="middle" pointer-events="none" font-size="8px" fill="#000000" x="125.34210798511123" y="3" font-family="Helvetica Neue, Helvetica, Arial, sans-serif">IS_HOMEWORLD</text></g><g class="relationship" transform="translate(-171.59425381064364 -301.7798477588141) rotate(435.7965112909226)"><path class="b-outline" fill="#A5ABB6" stroke="none" d="M 25 0.5 L 43.40083428883149 0.5 L 43.40083428883149 -0.5 L 25 -0.5 Z M 115.18599053883149 0.5 L 133.58682482766298 0.5 L 133.58682482766298 3.5 L 140.58682482766298 0 L 133.58682482766298 -3.5 L 133.58682482766298 -0.5 L 115.18599053883149 -0.5 Z"/><text text-anchor="middle" pointer-events="none" font-size="8px" fill="#000000" x="79.29341241383149" y="3" font-family="Helvetica Neue, Helvetica, Arial, sans-serif">IS_HOMEWORLD</text></g><g class="relationship" transform="translate(-130.9648083261754 -141.25494403315614) rotate(434.2827744668034)"><path class="b-outline" fill="#A5ABB6" stroke="none" d="M 25 0.5 L 93.53530760949123 0.5 L 93.53530760949123 -0.5 L 25 -0.5 Z M 149.7774951094912 0.5 L 218.31280271898245 0.5 L 218.31280271898245 3.5 L 225.31280271898245 0 L 218.31280271898245 -3.5 L 218.31280271898245 -0.5 L 149.7774951094912 -0.5 Z"/><text text-anchor="middle" pointer-events="none" font-size="8px" fill="#000000" x="121.65640135949123" y="3" font-family="Helvetica Neue, Helvetica, Arial, sans-serif">APPEARS_IN</text></g><g class="relationship" transform="translate(-226.18213646578596 -111.23237112355457) rotate(412.30026678365033)"><path class="b-outline" fill="#A5ABB6" stroke="none" d="M 25 0.5 L 101.67269340215557 0.5 L 101.67269340215557 -0.5 L 25 -0.5 Z M 157.91488090215557 0.5 L 234.58757430431115 0.5 L 234.58757430431115 3.5 L 241.58757430431115 0 L 234.58757430431115 -3.5 L 234.58757430431115 -0.5 L 157.91488090215557 -0.5 Z"/><text text-anchor="middle" pointer-events="none" font-size="8px" fill="#000000" x="129.79378715215557" y="3" font-family="Helvetica Neue, Helvetica, Arial, sans-serif">APPEARS_IN</text></g><g class="relationship" transform="translate(-571.341621921202 183.3407564111012) rotate(350.6534851588041)"><path class="b-outline" fill="#A5ABB6" stroke="none" d="M 25 0.5 L 225.8895743928349 0.5 L 225.8895743928349 -0.5 L 25 -0.5 Z M 282.1317618928349 0.5 L 483.0213362856698 0.5 L 483.0213362856698 3.5 L 490.0213362856698 0 L 483.0213362856698 -3.5 L 483.0213362856698 -0.5 L 282.1317618928349 -0.5 Z"/><text text-anchor="middle" pointer-events="none" font-size="8px" fill="#000000" x="254.0106681428349" y="3" font-family="Helvetica Neue, Helvetica, Arial, sans-serif">APPEARS_IN</text></g><g class="relationship" transform="translate(-350.593197991339 15.068464850802837) rotate(376.4061251810654)"><path class="b-outline" fill="#A5ABB6" stroke="none" d="M 25 0.5 L 118.19671511880031 0.5 L 118.19671511880031 -0.5 L 25 -0.5 Z M 174.4389026188003 0.5 L 267.6356177376006 0.5 L 267.6356177376006 3.5 L 274.6356177376006 0 L 267.6356177376006 -3.5 L 267.6356177376006 -0.5 L 174.4389026188003 -0.5 Z"/><text text-anchor="middle" pointer-events="none" font-size="8px" fill="#000000" x="146.3178088688003" y="3" font-family="Helvetica Neue, Helvetica, Arial, sans-serif">APPEARS_IN</text></g><g class="relationship" transform="translate(-129.11120894739778 240.83818340372207) rotate(295.04639886345683)"><path class="b-outline" fill="#A5ABB6" stroke="none" d="M 25 0.5 L 46.273413429854386 0.5 L 46.273413429854386 -0.5 L 25 -0.5 Z M 102.51560092985439 0.5 L 123.78901435970877 0.5 L 123.78901435970877 3.5 L 130.78901435970877 0 L 123.78901435970877 -3.5 L 123.78901435970877 -0.5 L 102.51560092985439 -0.5 Z"/><text text-anchor="middle" pointer-events="none" font-size="8px" fill="#000000" x="74.39450717985439" y="3" font-family="Helvetica Neue, Helvetica, Arial, sans-serif">APPEARS_IN</text></g><g class="relationship" transform="translate(-571.341621921202 183.3407564111012) rotate(317.2959231685985)"><path class="b-outline" fill="#A5ABB6" stroke="none" d="M 25 0.5 L 45.973631229724276 0.5 L 45.973631229724276 -0.5 L 25 -0.5 Z M 116.89159997972428 0.5 L 137.86523120944855 0.5 L 137.86523120944855 3.5 L 144.86523120944855 0 L 137.86523120944855 -3.5 L 137.86523120944855 -0.5 L 116.89159997972428 -0.5 Z"/><text text-anchor="middle" pointer-events="none" font-size="8px" fill="#000000" x="81.43261560472428" y="3" font-family="Helvetica Neue, Helvetica, Arial, sans-serif">VEHICLE_CLASS</text></g><g class="relationship" transform="translate(-63.15760834806892 99.69875034848496) rotate(515.6216500772441)"><path class="b-outline" fill="#A5ABB6" stroke="none" d="M 24.018736134675446,-6.953439040707552 L 24.277555179777966,-5.987513214418485 A 248.41771278584216 248.41771278584216 0 0 1 52.89469329236826,-11.876722511511048 L 52.75107190282608,-12.86635521937086 A 249.41771278584216 249.41771278584216 0 0 0 24.018736134675446,-6.953439040707552 Z M 119.58304091982333,-13.516872171638 L 119.45871033325874,-12.524631321216816 A 248.41771278584216 248.41771278584216 0 0 1 148.18506217576876,-7.193581732219425 L 147.46515853704236,-4.281239247045596 L 155.10051191429545,-5.999196989386766 L 149.14493369407066,-11.076705045784529 L 148.42503005534425,-8.1643625606107 A 249.41771278584216 249.41771278584216 0 0 0 119.58304091982333,-13.516872171638"/><text text-anchor="middle" pointer-events="none" font-size="8px" fill="#000000" x="86.15003487081846" y="-11.940350701926747" transform="rotate(180 86.15003487081846 -14.940350701926747)" font-family="Helvetica Neue, Helvetica, Arial, sans-serif">PRODUCED_BY</text></g><g class="relationship" transform="translate(-350.593197991339 15.068464850802837) rotate(511.0465208781176)"><path class="b-outline" fill="#A5ABB6" stroke="none" d="M 25 0.5 L 27.271652940686558 0.5 L 27.271652940686558 -0.5 L 25 -0.5 Z M 75.34977794068655 0.5 L 77.62143088137312 0.5 L 77.62143088137312 3.5 L 84.62143088137312 0 L 77.62143088137312 -3.5 L 77.62143088137312 -0.5 L 75.34977794068655 -0.5 Z"/><text text-anchor="middle" pointer-events="none" font-size="8px" fill="#000000" x="51.31071544068656" y="3" transform="rotate(180 51.31071544068656 0)" font-family="Helvetica Neue, Helvetica, Arial, sans-serif">STARSHI…</text></g><g class="relationship" transform="translate(-350.593197991339 15.068464850802837) rotate(447.8468758656161)"><path class="b-outline" fill="#A5ABB6" stroke="none" d="M 25 0.5 L 42.85726774139293 0.5 L 42.85726774139293 -0.5 L 25 -0.5 Z M 130.64633024139295 0.5 L 148.50359798278586 0.5 L 148.50359798278586 3.5 L 155.50359798278586 0 L 148.50359798278586 -3.5 L 148.50359798278586 -0.5 L 130.64633024139295 -0.5 Z"/><text text-anchor="middle" pointer-events="none" font-size="8px" fill="#000000" x="86.75179899139293" y="3" font-family="Helvetica Neue, Helvetica, Arial, sans-serif">MANUFACTURED_BY</text></g><g class="relationship" transform="translate(-129.11120894739778 240.83818340372207) rotate(191.9380878424207)"><path class="b-outline" fill="#A5ABB6" stroke="none" d="M 25 0.5 L 62.32880971893441 0.5 L 62.32880971893441 -0.5 L 25 -0.5 Z M 150.1178722189344 0.5 L 187.44668193786882 0.5 L 187.44668193786882 3.5 L 194.44668193786882 0 L 187.44668193786882 -3.5 L 187.44668193786882 -0.5 L 150.1178722189344 -0.5 Z"/><text text-anchor="middle" pointer-events="none" font-size="8px" fill="#000000" x="106.22334096893441" y="3" transform="rotate(180 106.22334096893441 0)" font-family="Helvetica Neue, Helvetica, Arial, sans-serif">MANUFACTURED_BY</text></g><g class="relationship" transform="translate(-571.341621921202 183.3407564111012) rotate(363.04508220685)"><path class="b-outline" fill="#A5ABB6" stroke="none" d="M 25 0.5 L 66.53132244196505 0.5 L 66.53132244196505 -0.5 L 25 -0.5 Z M 154.32038494196505 0.5 L 195.8517073839301 0.5 L 195.8517073839301 3.5 L 202.8517073839301 0 L 195.8517073839301 -3.5 L 195.8517073839301 -0.5 L 154.32038494196505 -0.5 Z"/><text text-anchor="middle" pointer-events="none" font-size="8px" fill="#000000" x="110.42585369196505" y="3" font-family="Helvetica Neue, Helvetica, Arial, sans-serif">MANUFACTURED_BY</text></g><g class="relationship" transform="translate(-228.785927011541 -13.351495153808996) rotate(394.31564110428025)"><path class="b-outline" fill="#A5ABB6" stroke="none" d="M 25 0.5 L 78.20547173476827 0.5 L 78.20547173476827 -0.5 L 25 -0.5 Z M 115.32656548476827 0.5 L 168.53203721953653 0.5 L 168.53203721953653 3.5 L 175.53203721953653 0 L 168.53203721953653 -3.5 L 168.53203721953653 -0.5 L 115.32656548476827 -0.5 Z"/><text text-anchor="middle" pointer-events="none" font-size="8px" fill="#000000" x="96.76601860976827" y="3" font-family="Helvetica Neue, Helvetica, Arial, sans-serif">SAID_IN</text></g><g class="relationship" transform="translate(-371.6694804980513 -233.24633468911904) rotate(475.60861811302425)"><path class="b-outline" fill="#A5ABB6" stroke="none" d="M 25 0.5 L 207.36840602613853 0.5 L 207.36840602613853 -0.5 L 25 -0.5 Z M 247.59887477613853 0.5 L 429.96728080227706 0.5 L 429.96728080227706 3.5 L 436.96728080227706 0 L 429.96728080227706 -3.5 L 429.96728080227706 -0.5 L 247.59887477613853 -0.5 Z"/><text text-anchor="middle" pointer-events="none" font-size="8px" fill="#000000" x="227.48364040113853" y="3" transform="rotate(180 227.48364040113853 0)" font-family="Helvetica Neue, Helvetica, Arial, sans-serif">PILOTED</text></g><g class="relationship" transform="translate(-371.6694804980513 -233.24633468911904) rotate(445.14851857247356)"><path class="b-outline" fill="#A5ABB6" stroke="none" d="M 25 0.5 L 100.98858715031912 0.5 L 100.98858715031912 -0.5 L 25 -0.5 Z M 141.21905590031912 0.5 L 217.20764305063824 0.5 L 217.20764305063824 3.5 L 224.20764305063824 0 L 217.20764305063824 -3.5 L 217.20764305063824 -0.5 L 141.21905590031912 -0.5 Z"/><text text-anchor="middle" pointer-events="none" font-size="8px" fill="#000000" x="121.10382152531912" y="3" font-family="Helvetica Neue, Helvetica, Arial, sans-serif">PILOTED</text></g><g class="relationship" transform="translate(-130.9648083261754 -141.25494403315614) rotate(219.04445229644267)"><path class="b-outline" fill="#A5ABB6" stroke="none" d="M 25 0.5 L 36.18725717797696 0.5 L 36.18725717797696 -0.5 L 25 -0.5 Z M 97.16381967797696 0.5 L 108.35107685595392 0.5 L 108.35107685595392 3.5 L 115.35107685595392 0 L 108.35107685595392 -3.5 L 108.35107685595392 -0.5 L 97.16381967797696 -0.5 Z"/><text text-anchor="middle" pointer-events="none" font-size="8px" fill="#000000" x="66.67553842797696" y="3" transform="rotate(180 66.67553842797696 0)" font-family="Helvetica Neue, Helvetica, Arial, sans-serif">HAS_CLIMATE</text></g><g class="relationship" transform="translate(-371.6694804980513 -233.24633468911904) rotate(341.0916821554416)"><path class="b-outline" fill="#A5ABB6" stroke="none" d="M 25 0.5 L 70.78864361261859 0.5 L 70.78864361261859 -0.5 L 25 -0.5 Z M 133.69879986261859 0.5 L 179.48744347523717 0.5 L 179.48744347523717 3.5 L 186.48744347523717 0 L 179.48744347523717 -3.5 L 179.48744347523717 -0.5 L 133.69879986261859 -0.5 Z"/><text text-anchor="middle" pointer-events="none" font-size="8px" fill="#000000" x="102.24372173761859" y="3" font-family="Helvetica Neue, Helvetica, Arial, sans-serif">IS_OF_SPECIE</text></g><g class="relationship" transform="translate(-228.785927011541 -13.351495153808996) rotate(236.9849423946971)"><path class="b-outline" fill="#A5ABB6" stroke="none" d="M 25 0.5 L 96.39699360385697 0.5 L 96.39699360385697 -0.5 L 25 -0.5 Z M 158.84230610385697 0.5 L 230.23929970771394 0.5 L 230.23929970771394 3.5 L 237.23929970771394 0 L 230.23929970771394 -3.5 L 230.23929970771394 -0.5 L 158.84230610385697 -0.5 Z"/><text text-anchor="middle" pointer-events="none" font-size="8px" fill="#000000" x="127.61964985385697" y="3" transform="rotate(180 127.61964985385697 0)" font-family="Helvetica Neue, Helvetica, Arial, sans-serif">QUOTE_FROM</text></g><g class="relationship" transform="translate(-171.59425381064364 -301.7798477588141) rotate(349.3361998647905)"><path class="b-outline" fill="#A5ABB6" stroke="none" d="M 25 0.5 L 42.8625975006953 0.5 L 42.8625975006953 -0.5 L 25 -0.5 Z M 102.9563475006953 0.5 L 120.8189450013906 0.5 L 120.8189450013906 3.5 L 127.8189450013906 0 L 120.8189450013906 -3.5 L 120.8189450013906 -0.5 L 102.9563475006953 -0.5 Z"/><text text-anchor="middle" pointer-events="none" font-size="8px" fill="#000000" x="72.9094725006953" y="3" font-family="Helvetica Neue, Helvetica, Arial, sans-serif">BELONGS_TO</text></g><g class="relationship" transform="translate(-129.11120894739778 240.83818340372207) rotate(369.8127445495593)"><path class="b-outline" fill="#A5ABB6" stroke="none" d="M 25 0.5 L 39.35369194465716 0.5 L 39.35369194465716 -0.5 L 25 -0.5 Z M 106.25603569465716 0.5 L 120.60972763931431 0.5 L 120.60972763931431 3.5 L 127.60972763931431 0 L 120.60972763931431 -3.5 L 120.60972763931431 -0.5 L 106.25603569465716 -0.5 Z"/><text text-anchor="middle" pointer-events="none" font-size="8px" fill="#000000" x="72.80486381965716" y="3" font-family="Helvetica Neue, Helvetica, Arial, sans-serif">WEAPON_TYPE</text></g><g class="relationship" transform="translate(-130.9648083261754 -141.25494403315614) rotate(365.3223773674634)"><path class="b-outline" fill="#A5ABB6" stroke="none" d="M 25 0.5 L 43.203570354342446 0.5 L 43.203570354342446 -0.5 L 25 -0.5 Z M 105.21528910434245 0.5 L 123.41885945868489 0.5 L 123.41885945868489 3.5 L 130.4188594586849 0 L 123.41885945868489 -3.5 L 123.41885945868489 -0.5 L 105.21528910434245 -0.5 Z"/><text text-anchor="middle" pointer-events="none" font-size="8px" fill="#000000" x="74.20942972934245" y="3" font-family="Helvetica Neue, Helvetica, Arial, sans-serif">HAS_TERRAIN</text></g><g class="relationship" transform="translate(-63.15760834806892 99.69875034848496) rotate(515.6216500772441)"><path class="b-outline" fill="#A5ABB6" stroke="none" d="M 24.018736134675446,6.953439040707552 L 24.277555179777966,5.987513214418485 A 248.41771278584216 248.41771278584216 0 0 0 55.31147628419675,12.215347991046116 L 55.17758360105286,13.206343828272765 A 249.41771278584216 249.41771278584216 0 0 1 24.018736134675446,6.953439040707552 Z M 117.15037095727187,13.809563355505475 L 117.03579376767088,12.816149007097351 A 248.41771278584216 248.41771278584216 0 0 0 148.18506217576876,7.193581732219425 L 147.46515853704236,4.281239247045596 L 155.10051191429545,5.999196989386766 L 149.14493369407066,11.076705045784529 L 148.42503005534425,8.1643625606107 A 249.41771278584216 249.41771278584216 0 0 1 117.15037095727187,13.809563355505475"/><text text-anchor="middle" pointer-events="none" font-size="8px" fill="#000000" x="86.15003487081853" y="17.940350701926747" transform="rotate(180 86.15003487081853 14.940350701926747)" font-family="Helvetica Neue, Helvetica, Arial, sans-serif">DIRECTED_BY</text></g><g class="relationship" transform="translate(-371.6694804980513 -233.24633468911904) rotate(399.98511068948676)"><path class="b-outline" fill="#A5ABB6" stroke="none" d="M 25 0.5 L 64.65426467005516 0.5 L 64.65426467005516 -0.5 L 25 -0.5 Z M 118.22457717005516 0.5 L 157.8788418401103 0.5 L 157.8788418401103 3.5 L 164.8788418401103 0 L 157.8788418401103 -3.5 L 157.8788418401103 -0.5 L 118.22457717005516 -0.5 Z"/><text text-anchor="middle" pointer-events="none" font-size="8px" fill="#000000" x="91.43942092005516" y="3" font-family="Helvetica Neue, Helvetica, Arial, sans-serif">LEADER_OF</text></g></g><g class="layer nodes"><g class="node" aria-label="graph-node-106" transform="translate(-239.96952148055485,-229.66533530452955)"><circle class="b-outline" cx="0" cy="0" r="25" fill="#A5ABB6" stroke="#9AA1AC" stroke-width="2px"/><text class="caption" text-anchor="middle" pointer-events="none" x="0" y="5" font-size="10px" fill="#FFFFFF" font-family="Helvetica Neue, Helvetica, Arial, sans-serif"> Climate</text></g><g class="node" aria-label="graph-node-107" transform="translate(-226.18213646578596,-111.23237112355457)"><circle class="b-outline" cx="0" cy="0" r="25" fill="#ECB5C9" stroke="#da7298" stroke-width="2px"/><text class="caption" text-anchor="middle" pointer-events="none" x="0" y="5" font-size="10px" fill="#2A2C34" font-family="Helvetica Neue, Helvetica, Arial, sans-serif"> Organiz…</text></g><g class="node" aria-label="graph-node-102" transform="translate(-371.6694804980513,-233.24633468911904)"><circle class="b-outline" cx="0" cy="0" r="25" fill="#4C8EDA" stroke="#2870c2" stroke-width="2px"/><text class="caption" text-anchor="middle" pointer-events="none" x="0" y="5" font-size="10px" fill="#FFFFFF" font-family="Helvetica Neue, Helvetica, Arial, sans-serif"> Character</text></g><g class="node" aria-label="graph-node-100" transform="translate(-63.15760834806892,99.69875034848496)"><circle class="b-outline" cx="0" cy="0" r="25" fill="#FFC454" stroke="#d7a013" stroke-width="2px"/><text class="caption" text-anchor="middle" pointer-events="none" x="0" y="5" font-size="10px" fill="#2A2C34" font-family="Helvetica Neue, Helvetica, Arial, sans-serif"> Film</text></g><g class="node" aria-label="graph-node-114" transform="translate(-129.11120894739778,240.83818340372207)"><circle class="b-outline" cx="0" cy="0" r="25" fill="#A5ABB6" stroke="#9AA1AC" stroke-width="2px"/><text class="caption" text-anchor="middle" pointer-events="none" x="0" y="5" font-size="10px" fill="#FFFFFF" font-family="Helvetica Neue, Helvetica, Arial, sans-serif"> Weapon</text></g><g class="node" aria-label="graph-node-109" transform="translate(-571.341621921202,183.3407564111012)"><circle class="b-outline" cx="0" cy="0" r="25" fill="#A5ABB6" stroke="#9AA1AC" stroke-width="2px"/><text class="caption" text-anchor="middle" pointer-events="none" x="0" y="5" font-size="10px" fill="#FFFFFF" font-family="Helvetica Neue, Helvetica, Arial, sans-serif"> Vehicle</text></g><g class="node" aria-label="graph-node-112" transform="translate(-228.785927011541,-13.351495153808996)"><circle class="b-outline" cx="0" cy="0" r="25" fill="#A5ABB6" stroke="#9AA1AC" stroke-width="2px"/><text class="caption" text-anchor="middle" pointer-events="none" x="0" y="5" font-size="10px" fill="#FFFFFF" font-family="Helvetica Neue, Helvetica, Arial, sans-serif"> Quote</text></g><g class="node" aria-label="graph-node-105" transform="translate(23.78396988526684,-126.83837309883509)"><circle class="b-outline" cx="0" cy="0" r="25" fill="#A5ABB6" stroke="#9AA1AC" stroke-width="2px"/><text class="caption" text-anchor="middle" pointer-events="none" x="0" y="5" font-size="10px" fill="#FFFFFF" font-family="Helvetica Neue, Helvetica, Arial, sans-serif"> Terrain</text></g><g class="node" aria-label="graph-node-108" transform="translate(-21.414506377058686,-330.0583451043711)"><circle class="b-outline" cx="0" cy="0" r="25" fill="#A5ABB6" stroke="#9AA1AC" stroke-width="2px"/><text class="caption" text-anchor="middle" pointer-events="none" x="0" y="5" font-size="10px" fill="#FFFFFF" font-family="Helvetica Neue, Helvetica, Arial, sans-serif"> Genus</text></g><g class="node" aria-label="graph-node-115" transform="translate(21.265840462225363,266.8472583776894)"><circle class="b-outline" cx="0" cy="0" r="25" fill="#A5ABB6" stroke="#9AA1AC" stroke-width="2px"/><text class="caption" text-anchor="middle" pointer-events="none" x="0" y="5" font-size="10px" fill="#FFFFFF" font-family="Helvetica Neue, Helvetica, Arial, sans-serif"> Weapon…</text></g><g class="node" aria-label="graph-node-110" transform="translate(-343.8116306724965,195.44462521971406)"><circle class="b-outline" cx="0" cy="0" r="25" fill="#A5ABB6" stroke="#9AA1AC" stroke-width="2px"/><text class="caption" text-anchor="middle" pointer-events="none" x="0" y="5" font-size="10px" fill="#FFFFFF" font-family="Helvetica Neue, Helvetica, Arial, sans-serif"> Manufac…</text></g><g class="node" aria-label="graph-node-113" transform="translate(-350.593197991339,15.068464850802837)"><circle class="b-outline" cx="0" cy="0" r="25" fill="#A5ABB6" stroke="#9AA1AC" stroke-width="2px"/><text class="caption" text-anchor="middle" pointer-events="none" x="0" y="5" font-size="10px" fill="#FFFFFF" font-family="Helvetica Neue, Helvetica, Arial, sans-serif"> Starship</text></g><g class="node" aria-label="graph-node-111" transform="translate(-446.5133812662907,68.13612495542156)"><circle class="b-outline" cx="0" cy="0" r="25" fill="#A5ABB6" stroke="#9AA1AC" stroke-width="2px"/><text class="caption" text-anchor="middle" pointer-events="none" x="0" y="5" font-size="10px" fill="#FFFFFF" font-family="Helvetica Neue, Helvetica, Arial, sans-serif"> Class</text></g><g class="node" aria-label="graph-node-104" transform="translate(-130.9648083261754,-141.25494403315614)"><circle class="b-outline" cx="0" cy="0" r="25" fill="#DA7194" stroke="#cc3c6c" stroke-width="2px"/><text class="caption" text-anchor="middle" pointer-events="none" x="0" y="5" font-size="10px" fill="#FFFFFF" font-family="Helvetica Neue, Helvetica, Arial, sans-serif"> Planet</text></g><g class="node" aria-label="graph-node-101" transform="translate(-226.53495389497132,173.7355760881843)"><circle class="b-outline" cx="0" cy="0" r="25" fill="#569480" stroke="#447666" stroke-width="2px"/><text class="caption" text-anchor="middle" pointer-events="none" x="0" y="5" font-size="10px" fill="#FFFFFF" font-family="Helvetica Neue, Helvetica, Arial, sans-serif"> Person</text></g><g class="node" aria-label="graph-node-103" transform="translate(-171.59425381064364,-301.7798477588141)"><circle class="b-outline" cx="0" cy="0" r="25" fill="#A5ABB6" stroke="#9AA1AC" stroke-width="2px"/><text class="caption" text-anchor="middle" pointer-events="none" x="0" y="5" font-size="10px" fill="#FFFFFF" font-family="Helvetica Neue, Helvetica, Arial, sans-serif"> Species</text></g></g></svg>